<?xml version="1.0" standalone="no"?>
<!DOCTYPE svg PUBLIC "-//W3C//DTD SVG 20010904//EN"
 "http://www.w3.org/TR/2001/REC-SVG-20010904/DTD/svg10.dtd">
<svg version="1.0" xmlns="http://www.w3.org/2000/svg"
 width="258.000000pt" height="258.000000pt" viewBox="0 0 258.000000 258.000000"
 preserveAspectRatio="xMidYMid meet">

<g transform="translate(0.000000,258.000000) scale(0.100000,-0.100000)"
fill="#000000" stroke="none">
<path d="M1311 2337 c-1 -24 -3 -26 -19 -16 -29 18 -160 -4 -228 -38 -81 -40
-173 -134 -216 -220 -52 -104 -73 -276 -43 -348 8 -18 7 -19 -8 -6 -10 8 -21
11 -25 7 -4 -4 5 -18 19 -29 14 -12 43 -53 63 -92 45 -81 57 -97 183 -229 106
-111 134 -149 169 -233 14 -32 23 -44 19 -28 -15 75 -61 151 -243 402 -7 10
-10 12 -7 6 4 -9 1 -11 -10 -6 -12 4 -13 8 -5 13 8 5 1 28 -23 76 -52 103 -52
104 -8 141 36 30 40 31 53 15 9 -9 18 -32 21 -50 7 -37 41 -117 128 -300 33
-69 71 -162 83 -207 26 -89 42 -183 26 -150 -7 15 -8 10 -4 -20 14 -91 20
-110 38 -113 20 -4 44 14 32 25 -4 4 -11 1 -16 -7 -8 -12 -10 -10 -10 8 0 13
3 21 8 19 4 -3 13 1 20 9 7 8 9 14 5 14 -4 0 -2 5 5 12 7 7 12 28 12 48 0 48
26 154 39 158 6 2 13 20 17 40 3 20 31 84 61 142 29 58 48 97 40 88 -15 -19
-37 -24 -37 -9 0 5 5 11 10 13 6 2 11 17 13 35 1 17 5 29 9 27 4 -2 10 16 14
42 3 25 13 48 21 51 11 4 11 8 1 21 -10 12 -10 16 -1 19 7 2 10 10 7 17 -5 14
40 56 60 56 16 0 79 31 84 42 2 3 16 2 33 -4 20 -7 29 -17 29 -32 0 -33 -11
-38 -34 -19 -16 13 -15 11 3 -9 l24 -28 -27 -69 c-25 -63 -81 -155 -127 -206
-58 -66 -91 -109 -140 -180 -30 -44 -56 -82 -59 -85 -7 -6 -30 -83 -30 -96 0
-5 11 16 23 46 33 80 74 134 173 230 92 89 169 172 125 135 l-24 -20 18 27 c9
15 21 26 25 23 5 -3 12 0 16 6 4 8 3 9 -4 5 -16 -9 -15 -4 4 43 8 22 22 42 29
45 11 4 12 0 4 -22 -6 -14 -16 -33 -22 -41 -9 -12 -9 -13 1 -7 14 8 56 88 66
126 5 20 3 18 -12 -8 -10 -18 -21 -30 -25 -26 -3 4 2 19 12 33 10 14 19 30 19
34 1 15 12 21 12 6 0 -8 7 -22 14 -32 13 -16 15 -16 30 -2 20 20 21 51 2 58
-10 4 -13 1 -9 -9 3 -8 -1 -14 -10 -14 -13 0 -13 6 -1 47 18 59 18 64 -3 56
-16 -6 -17 -5 -3 12 16 19 15 62 -2 82 -5 7 -8 18 -6 25 2 6 -4 20 -15 31 -13
13 -16 22 -8 26 8 6 7 18 -4 45 -10 22 -20 34 -27 30 -7 -4 -8 -3 -4 5 19 30
-97 152 -190 201 -31 17 -62 30 -70 30 -8 0 -14 4 -14 8 0 11 -109 36 -117 28
-4 -3 -1 -6 5 -6 7 0 12 -4 12 -10 0 -5 -7 -7 -15 -3 -10 3 -15 1 -13 -7 5
-19 -18 -23 -35 -6 -8 8 -18 12 -22 8 -5 -4 -5 -2 -2 5 4 6 15 9 26 6 22 -6
31 14 20 42 -7 17 -8 16 -8 -8z m-141 -42 c-7 -8 -16 -12 -21 -9 -13 8 -1 24
18 24 13 0 13 -3 3 -15z m-30 -19 c0 -12 -85 -96 -97 -96 -23 0 -9 24 18 30
24 6 24 6 -6 16 l-30 11 24 12 c21 12 23 11 18 -3 -5 -13 -3 -14 13 -3 11 6
20 15 20 20 0 4 -5 5 -12 1 -6 -4 -9 -3 -5 2 5 9 57 18 57 10z m160 -6 c12 -8
12 -10 -3 -16 -9 -3 -25 -3 -34 0 -15 6 -15 8 -3 16 8 6 17 10 20 10 3 0 12
-4 20 -10z m84 -5 c6 -16 -3 -19 -28 -9 -9 3 -13 10 -10 15 8 14 31 11 38 -6z
m-34 -15 c26 -16 -3 -35 -30 -20 -18 10 -20 14 -9 21 18 11 21 11 39 -1z m-63
-16 c35 -14 41 -19 32 -31 -7 -8 -21 -11 -33 -8 -17 5 -18 4 -6 -4 23 -16 -36
-73 -67 -65 -19 5 -22 11 -18 37 7 39 13 47 32 47 13 0 12 -5 -7 -25 -19 -21
-21 -25 -7 -25 9 0 16 4 15 10 -2 5 11 21 27 35 18 16 22 22 9 16 -23 -11 -50
1 -40 18 9 14 12 14 63 -5z m238 7 c10 -17 -12 -21 -25 -6 -10 12 -10 15 3 15
9 0 18 -4 22 -9z m-115 -30 c11 -22 14 -42 2 -25 -4 6 -20 14 -37 18 -24 5
-27 4 -12 -5 27 -16 3 -43 -25 -28 -20 11 -20 11 3 35 27 29 55 31 69 5z m160
9 c12 -7 12 -12 3 -21 -9 -9 -16 -9 -27 1 -26 21 -5 39 24 20z m-540 -7 c0
-10 -45 -53 -54 -53 -4 0 3 14 16 30 21 28 38 39 38 23z m579 -27 c9 -10 9
-16 1 -21 -13 -8 -42 14 -34 26 8 13 20 11 33 -5z m-575 -12 c14 -5 12 -34 -3
-34 -16 1 -33 19 -27 29 8 13 9 13 30 5z m130 -9 c-6 -16 -24 -21 -24 -7 0 11
11 22 21 22 5 0 6 -7 3 -15z m176 -13 c0 -4 -13 -20 -29 -35 -25 -25 -32 -27
-49 -16 -20 13 -20 14 11 45 24 26 35 30 49 23 10 -5 18 -13 18 -17z m77 13
c23 -16 39 -59 20 -52 -7 2 -11 11 -11 19 1 9 -5 14 -15 12 -21 -6 -45 11 -37
25 9 15 17 14 43 -4z m164 -10 c1 -17 -18 -17 -25 0 -4 11 -1 15 10 13 8 -2
15 -7 15 -13z m55 -41 c-23 -16 -26 -17 -45 -5 -12 8 -13 12 -1 25 12 15 15
15 34 -1 12 -10 15 -11 9 -3 -20 22 -15 37 5 17 16 -17 16 -19 -2 -33z m-652
25 c5 8 13 8 28 0 31 -17 7 -36 -26 -21 -24 10 -27 8 -51 -31 -13 -23 -25 -36
-25 -29 0 22 53 94 60 81 6 -8 9 -8 14 0z m116 -4 c-7 -9 -15 -13 -17 -11 -7
7 7 26 19 26 6 0 6 -6 -2 -15z m274 9 c18 -7 19 -13 7 -33 -7 -10 -14 -11 -32
-2 -21 10 -21 10 -5 -1 54 -37 61 -46 48 -60 -10 -10 -16 -10 -30 0 -9 7 -30
17 -45 23 l-29 11 33 34 c18 19 34 34 35 34 1 0 9 -3 18 -6z m-223 -19 c0 -5
-9 -11 -21 -13 -20 -3 -27 8 -13 22 10 9 34 3 34 -9z m59 -30 c-13 -16 -40 -9
-40 9 0 21 12 26 32 15 15 -8 17 -13 8 -24z m331 22 c-7 -7 -14 -8 -21 -1 -6
6 -2 10 12 11 16 2 18 -1 9 -10z m-104 -19 c13 -12 23 -30 23 -40 0 -16 -3
-17 -21 -8 -17 10 -18 14 -8 28 11 14 11 15 -1 5 -20 -18 -56 3 -39 23 15 18
19 18 46 -8z m-439 -5 c2 -8 -5 -13 -20 -13 -17 0 -19 -3 -9 -9 16 -10 6 -31
-14 -31 -23 0 -27 18 -9 45 17 26 44 30 52 8z m566 6 c-4 -7 -1 -10 7 -7 7 2
25 -6 38 -18 22 -20 23 -25 10 -40 -12 -15 -12 -16 7 -10 30 9 52 -18 33 -40
-12 -15 -11 -16 7 -10 26 8 41 -19 23 -41 -10 -12 -16 -9 -33 19 -11 18 -32
48 -47 67 -16 19 -25 40 -21 49 3 10 1 13 -7 8 -14 -9 -43 12 -35 25 3 5 10 9
15 9 6 0 7 -5 3 -11z m110 -30 c-3 -5 -1 -9 4 -9 14 0 44 -87 47 -132 2 -27
-3 -43 -15 -51 -20 -14 -39 -44 -22 -33 7 4 12 1 13 -6 1 -7 4 -3 7 10 8 28
25 33 30 9 4 -22 -43 -72 -58 -62 -6 4 -9 12 -7 19 3 6 -3 18 -11 26 -14 13
-15 12 -9 -3 3 -9 2 -17 -4 -17 -6 0 -7 -4 -4 -10 4 -6 -1 -7 -11 -3 -13 5
-14 8 -5 11 10 3 10 6 2 12 -8 4 2 22 30 53 22 26 45 44 50 41 14 -8 10 15 -7
41 -9 13 -12 30 -8 36 4 7 3 9 -4 5 -13 -8 -44 33 -35 47 3 6 1 7 -4 4 -6 -4
-18 2 -27 12 -17 18 -16 20 1 29 13 8 22 7 35 -5 10 -9 15 -20 12 -24z m-544
17 c-6 -8 -18 -12 -26 -9 -19 7 -7 23 18 23 17 0 18 -3 8 -14z m133 8 c9 -9
-3 -34 -17 -34 -20 0 -39 17 -32 29 8 12 39 15 49 5z m-73 -23 c0 -12 -20 -25
-27 -18 -7 7 6 27 18 27 5 0 9 -4 9 -9z m130 -19 c0 -4 -8 -15 -19 -24 -10 -8
-20 -21 -23 -28 -3 -10 -9 -10 -26 -1 -26 14 -19 45 10 38 14 -4 17 -2 9 7
-16 19 7 38 31 25 10 -5 18 -13 18 -17z m219 14 c7 -8 8 -17 3 -20 -6 -3 -12
3 -15 14 -6 24 -4 25 12 6z m-305 -31 c-7 -18 -9 -18 -35 -4 -16 8 -18 13 -9
24 16 19 52 1 44 -20z m-234 10 c0 -8 -4 -15 -10 -15 -5 0 -7 7 -4 15 4 8 8
15 10 15 2 0 4 -7 4 -15z m450 -16 c0 -4 -6 -12 -13 -18 -10 -8 -19 -7 -32 3
-16 12 -17 16 -6 29 10 13 16 14 32 4 10 -6 19 -15 19 -18z m-305 10 c4 -6 5
-12 2 -15 -7 -7 -37 7 -37 17 0 13 27 11 35 -2z m212 0 c14 -14 6 -39 -12 -39
-21 0 -36 25 -23 38 15 15 21 15 35 1z m-400 -13 c4 -3 2 -11 -3 -16 -12 -12
-44 -3 -44 12 0 5 -5 6 -12 2 -6 -4 -8 -3 -5 4 7 11 53 10 64 -2z m622 0 c9
-10 9 -16 1 -21 -13 -8 -42 14 -34 26 8 13 20 11 33 -5z m-380 -5 c13 -8 8
-31 -7 -31 -17 1 -34 19 -28 29 9 13 16 14 35 2z m561 -31 c0 -13 -1 -13 -10
0 -5 8 -10 22 -10 30 0 13 1 13 10 0 5 -8 10 -22 10 -30z m-770 15 c0 -8 -8
-15 -17 -16 -11 0 -13 -3 -5 -6 6 -2 12 -12 12 -20 0 -10 -6 -13 -16 -9 -9 3
-18 6 -20 6 -3 0 2 14 11 30 17 32 35 40 35 15z m124 9 c9 -3 16 -13 16 -21 0
-10 -6 -13 -16 -9 -9 3 -18 6 -20 6 -2 0 -4 7 -4 15 0 17 2 18 24 9z m285 -8
c11 -14 5 -46 -9 -46 -15 0 -30 28 -24 44 8 20 18 20 33 2z m73 -21 l4 -35
-23 22 c-17 16 -20 24 -12 35 18 21 27 15 31 -22z m-144 12 c6 -7 7 -19 3 -26
-12 -18 -52 4 -45 24 7 18 28 19 42 2z m220 0 c7 -8 7 -18 2 -27 -8 -13 -11
-12 -24 5 -22 30 -1 50 22 22z m-613 -17 c0 -9 -8 -14 -20 -12 -15 2 -17 1 -6
-7 11 -7 11 -15 2 -41 -14 -43 -14 -60 2 -55 17 7 41 -10 33 -23 -4 -8 -18 -7
-43 2 -40 14 -56 36 -26 37 10 0 13 3 6 6 -19 7 -16 33 5 34 10 0 12 3 5 6
-16 6 -16 14 -3 48 11 28 45 32 45 5z m309 14 c19 -7 21 -34 3 -34 -14 0 -37
20 -37 32 0 10 13 10 34 2z m376 -9 c13 -15 7 -45 -8 -45 -11 0 -32 46 -25 54
10 10 20 7 33 -9z m-435 -5 c11 -18 -5 -31 -26 -20 -11 6 -17 15 -14 21 8 12
32 12 40 -1z m-75 -27 c0 -8 -3 -12 -7 -10 -5 2 -16 7 -26 10 -10 4 -16 11
-13 16 9 14 46 1 46 -16z m264 -16 c-8 -13 -12 -14 -28 -2 -16 12 -17 17 -6
30 12 14 15 14 28 2 9 -10 11 -20 6 -30z m65 34 c8 -5 11 -16 6 -30 -6 -21 -8
-21 -25 -6 -10 9 -16 23 -13 31 6 16 13 17 32 5z m-209 -16 c9 -10 10 -19 4
-25 -13 -13 -49 13 -40 28 10 16 21 15 36 -3z m70 0 c18 -22 0 -37 -24 -20
-10 8 -15 18 -11 24 9 15 20 14 35 -4z m296 -34 c-11 -17 -24 -13 -36 9 -17
31 -1 46 22 22 11 -11 17 -25 14 -31z m-626 19 c11 -7 12 -12 3 -21 -15 -15
-43 -5 -43 16 0 17 18 19 40 5z m196 -12 c-3 -13 -3 -17 0 -10 8 16 29 15 44
-2 7 -9 8 -21 3 -30 -7 -13 -13 -12 -37 8 -20 15 -27 28 -23 39 9 25 19 21 13
-5z m493 3 c14 -25 -15 -54 -30 -30 -10 17 -11 33 -2 42 11 12 22 8 32 -12z
m-582 -6 c0 -8 -4 -15 -8 -15 -11 0 -20 16 -12 24 11 11 20 7 20 -9z m213 -13
c0 -4 -4 -13 -8 -20 -7 -9 -13 -8 -26 7 -23 25 -13 45 15 31 10 -6 19 -14 19
-18z m70 -3 c0 -4 -6 -12 -14 -18 -17 -14 -41 11 -32 34 5 13 9 13 26 3 11 -7
20 -16 20 -19z m58 19 c8 -8 8 -17 1 -30 -10 -18 -12 -19 -29 -3 -19 18 -17
45 4 45 7 0 17 -5 24 -12z m60 -29 l3 -34 -21 21 c-13 13 -18 27 -14 38 10 27
29 13 32 -25z m93 -7 c7 -15 15 -30 17 -34 2 -5 -3 -8 -12 -8 -10 0 -13 6 -9
17 4 10 2 14 -4 10 -6 -4 -15 6 -21 22 -14 38 9 33 29 -7z m59 -17 c0 -22 -13
-25 -27 -6 -7 11 -10 27 -6 37 6 16 7 16 20 -2 7 -10 13 -23 13 -29z m-686 29
c19 -7 22 -34 4 -34 -22 0 -41 17 -34 29 8 13 9 13 30 5z m326 -34 c0 -6 -11
-10 -25 -10 -23 0 -34 18 -19 33 9 8 44 -11 44 -23z m60 -1 c0 -5 -9 -9 -20
-9 -19 0 -27 20 -13 33 7 8 33 -11 33 -24z m58 19 c16 -16 15 -28 0 -28 -22 0
-41 17 -34 29 9 14 19 14 34 -1z m72 -42 c-15 -15 -45 18 -36 41 7 17 9 16 27
-6 14 -17 17 -27 9 -35z m324 38 c3 -8 2 -12 -4 -9 -6 3 -10 10 -10 16 0 14 7
11 14 -7z m-807 -16 c-3 -8 -6 -5 -6 6 -1 11 2 17 5 13 3 -3 4 -12 1 -19z
m213 -12 c0 -6 -4 -5 -9 3 -5 7 -14 10 -20 7 -12 -8 -15 6 -4 17 8 9 33 -12
33 -27z m-210 -15 c0 -6 -4 -13 -10 -16 -5 -3 -10 1 -10 9 0 9 5 16 10 16 6 0
10 -4 10 -9z m143 2 c-7 -2 -19 -2 -25 0 -7 3 -2 5 12 5 14 0 19 -2 13 -5z
m157 -9 c0 -23 -42 -55 -64 -48 -39 10 -64 26 -69 43 -3 13 7 16 65 17 51 1
68 -2 68 -12z m168 -10 c19 -13 21 -20 16 -57 -15 -101 -34 -181 -73 -308 -49
-161 -69 -249 -77 -346 -4 -40 -10 -73 -15 -73 -4 0 -9 -12 -11 -28 -2 -15 -7
4 -11 43 -4 39 -12 113 -17 165 -10 94 -80 404 -87 383 -2 -6 3 -41 12 -78 8
-36 15 -76 15 -88 0 -20 -1 -20 -17 -4 -15 15 -18 38 -20 135 -1 64 -4 144 -7
177 -4 48 -2 57 7 45 18 -23 70 -24 98 -2 22 18 24 18 36 3 12 -14 12 -14 6 4
-6 19 -6 19 14 3 11 -10 24 -18 29 -18 4 0 -2 7 -14 16 -12 8 -22 24 -22 36 0
19 4 20 58 13 31 -3 67 -13 80 -21z m-565 10 c9 -9 -4 -35 -14 -28 -5 3 -9 12
-9 20 0 14 12 19 23 8z m650 -1 c-7 -2 -19 -2 -25 0 -7 3 -2 5 12 5 14 0 19
-2 13 -5z m-608 -13 c3 -5 -1 -10 -9 -10 -9 0 -16 5 -16 10 0 6 4 10 9 10 6 0
13 -4 16 -10z m668 3 c-7 -2 -19 -2 -25 0 -7 3 -2 5 12 5 14 0 19 -2 13 -5z
m-608 -23 c3 -5 1 -10 -4 -10 -6 0 -11 5 -11 10 0 6 2 10 4 10 3 0 8 -4 11
-10z m755 6 c0 -3 -4 -8 -10 -11 -5 -3 -10 -1 -10 4 0 6 5 11 10 11 6 0 10 -2
10 -4z m-796 -22 c7 -18 -42 -71 -54 -58 -4 5 -11 18 -14 30 -5 16 0 23 21 31
39 15 40 15 47 -3z m686 1 c0 -8 -4 -15 -10 -15 -5 0 -10 7 -10 15 0 8 5 15
10 15 6 0 10 -7 10 -15z m-489 -92 c1 -10 1 -24 0 -30 -1 -7 2 -13 6 -13 4 0
7 -39 5 -87 -4 -87 -4 -88 -18 -54 -8 19 -12 36 -10 39 3 2 0 14 -6 26 -6 11
-13 38 -15 60 -2 22 -5 42 -8 44 -6 7 19 31 33 32 6 0 13 -8 13 -17z"/>
<path d="M1434 1794 c-18 -14 -18 -15 4 -4 12 6 22 13 22 15 0 8 -5 6 -26 -11z"/>
<path d="M1373 1773 c9 -2 23 -2 30 0 6 3 -1 5 -18 5 -16 0 -22 -2 -12 -5z"/>
<path d="M1587 1711 c-4 -17 -3 -21 5 -13 5 5 8 16 6 23 -3 8 -7 3 -11 -10z"/>
<path d="M1566 1635 c-10 -25 -22 -45 -27 -45 -6 0 -7 -5 -4 -10 10 -17 22 -3
39 47 21 60 14 67 -8 8z"/>
<path d="M765 1600 c6 -25 2 -37 -17 -58 -17 -19 -18 -22 -3 -12 42 32 51 46
45 70 -3 13 -12 26 -19 28 -10 3 -11 -3 -6 -28z"/>
<path d="M2144 1612 c-14 -10 -15 -55 -2 -63 20 -13 37 2 36 31 -1 29 -17 44
-34 32z"/>
<path d="M430 1580 c0 -24 4 -30 23 -30 18 0 19 2 7 10 -12 8 -12 10 -1 10 10
0 11 3 2 14 -9 11 -9 15 1 19 7 3 3 6 -9 6 -19 1 -23 -4 -23 -29z"/>
<path d="M502 1580 c1 -22 6 -30 19 -30 24 0 34 19 15 26 -9 3 -16 10 -16 16
0 5 5 6 10 3 6 -3 10 -1 10 4 0 6 -9 11 -19 11 -15 0 -19 -7 -19 -30z"/>
<path d="M576 1602 c7 -4 14 -18 17 -32 l4 -25 2 27 c0 14 7 29 14 31 6 3 -1
6 -18 6 -16 0 -25 -3 -19 -7z"/>
<path d="M1934 1598 c-5 -8 -2 -9 9 -5 22 8 22 -1 0 -25 -15 -17 -15 -18 13
-17 16 0 23 3 16 6 -10 4 -10 8 -2 19 7 7 9 18 5 24 -8 14 -32 13 -41 -2z"/>
<path d="M2004 1596 c-9 -24 3 -46 26 -46 17 0 21 5 18 27 -3 31 -34 44 -44
19z m28 -28 c-9 -9 -12 -7 -12 12 0 19 3 21 12 12 9 -9 9 -15 0 -24z"/>
<path d="M2078 1598 c5 -7 12 -22 15 -33 3 -13 5 -9 6 13 1 23 -3 32 -15 32
-12 0 -14 -3 -6 -12z"/>
<path d="M1820 1578 c0 -36 15 -43 34 -16 18 26 20 38 6 38 -5 0 -10 -10 -10
-22 -1 -23 -1 -23 -15 2 l-14 25 -1 -27z"/>
<path d="M1781 1530 c0 -14 3 -31 8 -39 10 -16 31 -6 31 15 0 17 -20 19 -21 2
-1 -7 -5 1 -9 17 -7 28 -8 28 -9 5z"/>
<path d="M632 1318 c-6 -7 -17 -31 -26 -53 -16 -39 -19 -41 -78 -52 -87 -17
-99 -34 -16 -26 l65 6 -22 -87 c-12 -48 -31 -99 -43 -114 l-21 -27 6 35 c3 19
10 43 14 52 14 26 11 68 -5 68 -7 0 -25 -9 -40 -21 l-27 -21 7 26 c11 46 -4
28 -47 -54 -22 -44 -45 -80 -50 -80 -4 0 4 33 19 74 14 41 24 78 20 81 -3 3
-22 -4 -43 -16 l-37 -22 8 34 c16 62 10 110 -15 130 -13 11 -28 19 -33 19 -21
0 -67 -59 -73 -93 -4 -21 -13 -37 -20 -37 -17 0 -31 -43 -50 -151 -17 -95 -19
-175 -6 -183 12 -8 102 113 146 197 27 49 41 67 57 67 15 0 18 -4 13 -17 -48
-116 -30 -176 29 -100 21 26 24 28 20 10 -12 -44 22 -24 46 27 13 27 32 58 42
67 18 16 19 16 9 -11 -6 -15 -11 -45 -11 -67 0 -45 17 -52 48 -19 l19 21 6
-21 c6 -23 30 -26 49 -6 9 10 17 10 30 3 13 -9 21 -7 36 6 14 13 21 14 30 5 9
-9 17 -10 30 -2 9 6 28 8 42 4 22 -5 17 -9 -35 -30 -178 -70 -256 -125 -270
-189 -22 -101 101 -133 226 -58 66 40 111 104 141 201 23 77 41 98 76 89 25
-6 52 12 52 35 0 12 -3 13 -12 4 -7 -7 -18 -12 -25 -12 -9 0 -5 12 12 38 34
51 37 86 8 90 -17 2 -28 -6 -43 -30 -11 -18 -20 -42 -20 -53 0 -11 -5 -27 -11
-35 -8 -11 -9 -2 -4 34 4 27 9 56 13 64 4 12 1 14 -13 9 -9 -4 -24 -2 -31 4
-29 24 -91 -45 -96 -106 -3 -29 -28 -59 -28 -33 0 8 7 38 16 68 13 44 13 54 2
61 -41 26 -91 -11 -104 -76 -3 -19 -15 -42 -26 -52 -20 -17 -20 -17 -15 2 3
11 8 36 12 55 4 19 13 58 21 86 l15 51 87 -4 c90 -4 182 12 189 34 3 8 -31 10
-133 6 -132 -6 -137 -5 -130 13 10 25 20 94 14 94 -3 0 -10 -6 -16 -12z m-344
-90 c25 -25 5 -138 -24 -138 -22 0 -54 37 -54 63 0 28 36 87 53 87 7 0 18 -5
25 -12z m-48 -153 c24 -8 25 -17 4 -58 -23 -45 -86 -139 -90 -134 -3 3 19 159
32 221 l6 30 14 -26 c8 -15 23 -29 34 -33z m569 -26 c-25 -45 -49 -62 -49 -34
0 20 29 77 44 87 25 16 27 -13 5 -53z m111 42 c-16 -31 -32 -36 -18 -7 6 14
15 26 20 26 5 0 4 -9 -2 -19z m-220 -3 c0 -13 -48 -98 -56 -98 -9 0 7 64 22
88 15 24 34 30 34 10z m120 -97 c0 -5 -7 -12 -16 -15 -14 -5 -15 -4 -4 9 14
17 20 19 20 6z m-40 -123 c-39 -106 -128 -178 -224 -181 -84 -3 -100 54 -32
118 32 30 268 138 274 125 1 -4 -6 -32 -18 -62z"/>
<path d="M2137 1299 c-9 -13 -26 -54 -37 -91 -15 -43 -28 -68 -40 -71 -26 -7
-51 -50 -57 -96 -6 -44 -33 -80 -33 -44 0 11 7 42 15 68 16 54 14 60 -15 68
-36 9 -68 -27 -94 -106 -5 -17 -9 -16 -35 11 l-30 29 21 42 c57 115 -56 192
-141 96 -40 -46 -49 -81 -27 -103 16 -16 17 -15 11 10 -8 32 16 73 56 94 39
20 56 18 75 -10 14 -23 14 -28 -4 -70 -11 -24 -29 -49 -40 -55 -20 -11 -20 -9
-15 44 5 45 3 55 -10 55 -8 0 -17 -6 -20 -13 -11 -30 -49 -288 -43 -294 12
-12 24 11 41 77 20 78 29 90 65 90 38 0 53 -23 52 -75 -1 -83 -67 -155 -143
-155 -43 0 -64 25 -56 66 6 34 -11 41 -23 9 -14 -38 9 -88 49 -105 38 -15 92
-3 136 32 30 24 75 110 75 146 0 19 2 21 19 10 16 -10 23 -9 39 5 14 13 21 14
30 5 9 -9 16 -8 30 5 14 13 21 14 30 5 9 -9 16 -7 32 7 16 14 22 15 35 5 10
-8 19 -9 28 -3 8 6 20 6 34 -2 21 -11 15 -15 -71 -49 -162 -64 -226 -119 -226
-193 0 -93 141 -101 257 -14 51 39 105 130 118 199 9 50 39 80 71 74 30 -5 63
22 105 87 l28 44 11 -27 c15 -42 12 -62 -14 -93 -24 -28 -25 -28 -40 -8 -14
19 -15 19 -22 1 -5 -13 -1 -23 11 -32 28 -20 43 -17 76 15 36 36 39 90 9 139
-15 24 -19 43 -14 67 3 18 1 35 -4 39 -14 9 -42 -33 -42 -62 0 -47 -79 -167
-97 -148 -3 2 8 26 23 53 27 47 28 83 4 83 -23 0 -60 -50 -66 -89 -4 -23 -10
-41 -14 -41 -4 0 -3 25 3 56 9 55 4 81 -12 55 -6 -9 -11 -10 -15 -2 -23 37
-92 -26 -103 -93 -6 -38 -17 -46 -27 -21 -3 8 8 43 24 77 16 35 37 92 46 127
14 56 14 65 1 78 -13 14 -17 13 -30 -8z m177 -194 c-9 -14 -19 -24 -21 -21 -6
6 20 46 30 46 4 0 0 -11 -9 -25z m-260 -61 c-13 -30 -18 -35 -21 -20 -3 10 3
37 14 60 14 33 19 37 21 19 2 -11 -5 -38 -14 -59z m169 70 c13 -14 -48 -108
-64 -99 -11 7 7 64 27 86 18 20 27 23 37 13z m-279 -75 c-16 -28 -30 -46 -32
-40 -5 16 17 79 36 97 28 28 25 -2 -4 -57z m266 -38 c0 -5 -7 -12 -16 -15 -14
-5 -15 -4 -4 9 14 17 20 19 20 6z m-16 -73 c-43 -136 -122 -212 -235 -225 -57
-7 -79 6 -79 46 0 56 44 90 204 157 56 23 105 43 109 43 5 1 5 -9 1 -21z"/>
<path d="M363 1174 c-8 -21 13 -42 28 -27 13 13 5 43 -11 43 -6 0 -13 -7 -17
-16z"/>
<path d="M1111 905 c1 -19 18 -51 18 -35 0 8 -4 22 -9 30 -5 8 -9 11 -9 5z"/>
<path d="M1181 864 c0 -11 3 -14 6 -6 3 7 2 16 -1 19 -3 4 -6 -2 -5 -13z"/>
<path d="M1311 847 c0 -10 -6 -15 -12 -12 -6 4 -13 -2 -16 -14 -4 -17 -13 -21
-44 -21 -29 0 -39 4 -39 16 0 8 -5 12 -10 9 -6 -4 -8 -10 -5 -15 3 -4 -2 -11
-11 -14 -10 -4 -19 4 -29 27 l-14 32 3 -53 c3 -50 16 -87 16 -46 0 13 7 20 19
20 15 0 17 -4 11 -22 -8 -21 -4 -34 9 -34 4 0 8 12 9 27 3 34 2 33 48 36 l39
2 -3 -42 c-2 -26 1 -43 7 -43 6 0 11 18 11 41 l0 40 38 -3 c35 -3 37 -5 36
-35 -1 -18 2 -30 7 -27 5 3 9 13 9 23 0 10 7 24 15 31 13 10 15 9 15 -9 0 -11
5 -21 10 -21 6 0 10 11 10 25 0 17 -9 29 -30 40 -33 17 -54 20 -45 5 7 -12
-32 -12 -60 0 -17 7 -14 9 15 10 19 1 27 4 18 7 -9 2 -19 12 -21 21 -4 15 -5
15 -6 -1z m84 -47 c3 -5 1 -10 -4 -10 -6 0 -11 5 -11 10 0 6 2 10 4 10 3 0 8
-4 11 -10z"/>
<path d="M1223 823 c9 -2 25 -2 35 0 9 3 1 5 -18 5 -19 0 -27 -2 -17 -5z"/>
<path d="M977 797 c-3 -7 4 -24 14 -38 20 -26 25 -19 9 12 -22 41 0 17 24 -27
29 -53 31 -60 13 -48 -7 5 -3 0 9 -11 12 -11 29 -32 38 -46 15 -24 15 -29 1
-65 -9 -21 -20 -47 -25 -56 -6 -10 -6 -18 -1 -18 5 0 12 7 15 16 3 8 10 12 16
9 16 -10 11 -43 -7 -48 -15 -4 -14 -5 3 -6 11 0 25 4 31 10 8 8 13 5 18 -10 3
-11 18 -30 32 -41 22 -17 40 -20 134 -20 127 0 133 4 170 102 12 33 28 62 35
65 6 2 11 11 10 18 -3 18 -16 32 -16 17 0 -7 -10 -12 -23 -12 -12 0 -32 -7
-43 -15 -12 -8 -24 -11 -28 -7 -4 3 -4 -1 -1 -11 5 -11 -3 -27 -24 -48 -30
-29 -36 -31 -88 -27 -64 6 -96 33 -91 77 3 24 2 25 -51 22 -48 -2 -53 -1 -42
12 6 9 8 18 3 21 -5 3 -33 46 -61 96 -52 89 -64 102 -74 77z m139 -242 c9 -37
-2 -41 -14 -6 -7 18 -7 31 -2 31 5 0 12 -11 16 -25z m348 -28 c-9 -26 -20 -47
-25 -47 -4 0 -6 -6 -3 -14 6 -17 -48 -46 -85 -46 -18 0 -22 3 -13 9 10 6 7 10
-12 15 -26 6 -37 28 -13 25 6 -1 30 -1 52 1 32 1 36 3 20 10 -16 7 -12 9 20 9
30 1 36 4 25 11 -12 8 -13 12 -2 19 8 4 13 12 13 17 -1 11 29 47 35 42 2 -3
-3 -26 -12 -51z m-274 -1 c0 -2 -7 -6 -15 -10 -8 -3 -15 -1 -15 4 0 6 7 10 15
10 8 0 15 -2 15 -4z m100 -66 c0 -13 -11 -13 -30 0 -12 8 -11 10 8 10 12 0 22
-4 22 -10z"/>
<path d="M910 708 c1 -7 17 -31 36 -53 l36 -40 -31 46 c-16 26 -27 49 -24 53
4 3 1 6 -5 6 -7 0 -12 -6 -12 -12z"/>
<path d="M1500 538 c-21 -35 -24 -47 -14 -72 7 -18 39 -22 49 -6 3 5 0 8 -7 5
-40 -15 -44 59 -4 75 11 5 17 9 11 10 -5 0 -3 5 5 10 13 8 12 10 -3 10 -9 0
-26 -15 -37 -32z"/>
<path d="M1298 503 c6 -2 18 -2 25 0 6 3 1 5 -13 5 -14 0 -19 -2 -12 -5z"/>
<path d="M717 420 c-18 -30 -18 -30 7 -41 20 -9 29 -9 41 1 21 17 19 47 -4 60
-26 13 -24 14 -44 -20z m40 -27 c-24 -24 -44 -4 -26 26 12 18 15 19 28 6 14
-13 13 -17 -2 -32z"/>
<path d="M1830 432 c0 -25 -10 -28 -28 -10 -7 7 -12 8 -11 3 0 -6 13 -20 29
-33 l29 -23 -6 38 c-7 44 -13 56 -13 25z"/>
<path d="M805 379 c-15 -29 -13 -49 5 -49 5 0 7 7 4 15 -4 8 -1 15 5 15 6 0 8
7 4 17 -5 12 -2 15 10 10 9 -3 17 -2 17 2 0 5 -7 11 -15 15 -10 3 -20 -5 -30
-25z"/>
<path d="M1750 404 c0 -3 5 -14 11 -25 10 -20 9 -20 -20 -4 -17 8 -31 11 -31
6 0 -17 23 -61 32 -61 5 0 4 9 -2 20 -12 23 -7 25 22 9 28 -15 32 -6 13 30
-14 29 -25 39 -25 25z"/>
<path d="M874 358 c-4 -6 1 -17 11 -24 10 -8 16 -17 12 -20 -4 -4 -14 -1 -23
7 -15 12 -17 12 -12 -1 6 -21 48 -26 48 -6 0 8 -4 18 -10 21 -16 10 -12 28 5
21 8 -3 15 -1 15 4 0 14 -37 12 -46 -2z"/>
<path d="M1640 319 c0 -35 2 -40 14 -29 8 6 12 19 8 28 -5 15 -4 15 12 -1 28
-27 33 -11 6 18 -32 35 -40 31 -40 -16z"/>
<path d="M951 326 c-6 -16 -10 -34 -8 -40 3 -6 10 2 16 18 6 16 10 34 8 40 -3
6 -10 -2 -16 -18z"/>
<path d="M1561 331 c-15 -10 -6 -71 10 -71 6 0 7 5 4 11 -4 6 1 16 11 23 10 8
15 20 11 30 -7 18 -16 20 -36 7z m23 -22 c-3 -5 -10 -7 -15 -3 -5 3 -7 10 -3
15 3 5 10 7 15 3 5 -3 7 -10 3 -15z"/>
<path d="M1002 318 c-30 -30 11 -85 44 -57 18 15 18 29 -2 29 -8 0 -12 -4 -9
-10 3 -5 -1 -10 -10 -10 -20 0 -31 28 -16 43 9 9 17 8 32 -2 18 -10 20 -10 17
1 -6 18 -40 22 -56 6z"/>
<path d="M1495 290 c-4 -17 -11 -28 -16 -24 -5 3 -9 1 -9 -5 0 -19 19 -21 29
-4 6 10 11 12 11 6 0 -7 4 -13 8 -13 10 0 3 58 -8 65 -5 3 -11 -8 -15 -25z"/>
<path d="M1094 285 c-3 -13 -4 -30 -1 -37 3 -7 6 -3 6 10 1 30 17 28 25 -3 7
-29 26 -34 26 -6 0 11 3 26 6 35 3 9 1 16 -5 16 -6 0 -11 -10 -11 -22 -1 -22
-2 -21 -16 5 -18 33 -22 34 -30 2z"/>
<path d="M1441 290 c0 -14 4 -34 8 -45 7 -17 9 -16 14 10 3 19 0 35 -9 45 -12
12 -14 11 -13 -10z"/>
<path d="M1246 284 c-9 -8 -16 -19 -16 -24 0 -13 30 -40 45 -40 8 0 17 4 20
10 4 6 -4 9 -17 7 -19 -2 -23 3 -23 23 0 20 4 25 23 23 13 -2 21 1 17 7 -9 15
-31 12 -49 -6z"/>
<path d="M1347 294 c-14 -14 -7 -53 12 -63 26 -14 54 8 49 40 -2 17 -10 25
-28 27 -14 2 -29 0 -33 -4z m51 -27 c4 -20 -25 -34 -40 -19 -15 15 -1 44 19
40 10 -2 19 -11 21 -21z"/>
</g>
</svg>
